<svg xmlns="http://www.w3.org/2000/svg" width="317.67" height="99.053" viewBox="0 0 317.67 99.053">
  <path id="loading-logo-text" d="M111.16,85.451H92.308L78.038,60.818H69.55V85.451H52V10.512H82.673a25.518,25.518,0,0,1,18.591,7.5,24.424,24.424,0,0,1,7.707,18.175A25.049,25.049,0,0,1,94.807,57.954l16.352,27.5ZM82.673,26.6H69.55V45.872H82.673a9.166,9.166,0,0,0,8.749-9.634A9.166,9.166,0,0,0,82.673,26.6Zm71.97,10.415V31.811H171.1V85.451H154.644V80.243a20.362,20.362,0,0,1-16.3,6.562,24.528,24.528,0,0,1-18.644-8.02,28.33,28.33,0,0,1-7.655-20.1,28.122,28.122,0,0,1,7.655-20,24.58,24.58,0,0,1,18.539-8.228,20.518,20.518,0,0,1,16.3,6.51ZM132.2,68.265a14.321,14.321,0,0,0,18.852,0,12.811,12.811,0,0,0,3.593-9.53,12.811,12.811,0,0,0-3.7-9.582,14.321,14.321,0,0,0-18.852,0,12.811,12.811,0,0,0-3.593,9.53,12.811,12.811,0,0,0,3.593,9.53Zm89.52-31.246V10.512h16.4V85.451h-16.4V80.243a20.831,20.831,0,0,1-16.3,6.51,24.476,24.476,0,0,1-18.539-7.968,28.174,28.174,0,0,1-7.655-20.1,27.861,27.861,0,0,1,7.655-20,24.632,24.632,0,0,1,18.539-8.28,20.466,20.466,0,0,1,16.3,6.562ZM199.274,68.265a12.967,12.967,0,0,0,9.426,3.541,13.123,13.123,0,0,0,9.426-3.541,12.811,12.811,0,0,0,3.593-9.53,12.811,12.811,0,0,0-3.593-9.53,13.123,13.123,0,0,0-9.426-3.541,12.967,12.967,0,0,0-9.426,3.541,12.811,12.811,0,0,0-3.645,9.53,12.811,12.811,0,0,0,3.645,9.53Zm64.888-43.745a10.1,10.1,0,0,1-13.9,0,9.426,9.426,0,0,1,0-13.592,9.738,9.738,0,0,1,13.9,0,9.27,9.27,0,0,1,0,13.54Zm1.354,60.93H249.007V31.916h16.508Zm42.964-53.535V47.539H297.126V66.286c0,4.27,3.281,5.208,11.3,4.583V85.451c-10.415,1.042-17.654,0-21.716-2.916a19.216,19.216,0,0,1-5.989-16.248V47.33h-8.8V31.707h8.8V21.761l16.4-4.791V31.916Zm33.433,32.756,10.415-32.756H369.67L350.922,83.993c-6.093,16.821-15.623,23.747-31.246,23.018V91.856A12.342,12.342,0,0,0,333.372,83l-21.82-51.088h18.071Z" transform="translate(-52 -8.009)" fill="#fff" fill-rule="evenodd"/>
</svg>
